<?xml version="1.0" encoding="UTF-8"?>
<svg viewBox="0 0 239 43" version="1.1" xmlns="http://www.w3.org/2000/svg" xmlns:xlink="http://www.w3.org/1999/xlink">
    <!-- Generator: Sketch 51.3 (57544) - http://www.bohemiancoding.com/sketch -->
    <title>LogoDark</title>
    <desc>Created with Sketch.</desc>
    <defs></defs>
    <g id="Page-1" stroke="none" stroke-width="1" fill="none" fill-rule="evenodd">
        <g id="LogoDark">
            <path d="M0,15 L0,31 L5,31 C5.52527,31 6.04541,31.1035 6.53076,31.3045 C7.01599,31.5055 7.45703,31.8001 7.82837,32.1716 C8.19983,32.543 8.49451,32.984 8.69556,33.4693 C8.89648,33.9546 9,34.4747 9,35 L9,40 L21,40 L36,25 L36,9 L31,9 C30.4747,9 29.9546,8.89655 29.4692,8.69553 C28.984,8.49451 28.543,8.19986 28.1716,7.82843 C27.8002,7.457 27.5055,7.01602 27.3044,6.53073 C27.1035,6.04544 27,5.5253 27,5 L27,0 L15,0 L0,15 Z M17,30 L10,30 L10,19 L19,10 L26,10 L26,21 L17,30 Z" id="Shape" fill="#0004E8"></path>
            <path d="M230.568,12.2458 C233.094,12.2458 235.125,13.0258 236.66,14.5858 C238.22,16.1211 239,18.2754 239,21.0487 L239,33.1203 L233.8,33.1203 L233.8,21.7545 C233.8,20.1449 233.391,18.9192 232.574,18.0773 C231.757,17.2106 230.643,16.7773 229.231,16.7773 C227.82,16.7773 226.693,17.2106 225.851,18.0773 C225.034,18.9192 224.626,20.1449 224.626,21.7545 L224.626,33.1203 L219.426,33.1203 L219.426,21.7545 C219.426,20.1449 219.017,18.9192 218.2,18.0773 C217.383,17.2106 216.268,16.7773 214.857,16.7773 C213.421,16.7773 212.282,17.2106 211.44,18.0773 C210.623,18.9192 210.214,20.1449 210.214,21.7545 L210.214,33.1203 L205.014,33.1203 L205.014,12.5429 L210.214,12.5429 L210.214,15.0315 C210.883,14.1649 211.737,13.4839 212.777,12.9887 C213.842,12.4934 215.005,12.2458 216.268,12.2458 C217.878,12.2458 219.314,12.5925 220.577,13.2858 C221.84,13.9544 222.818,14.9201 223.511,16.183 C224.18,14.9944 225.146,14.041 226.408,13.3229 C227.696,12.6048 229.083,12.2458 230.568,12.2458 Z" id="Shape" fill="#FFFFFF" fill-rule="nonzero"></path>
            <path d="M201.183,12.5429 L201.183,33.1203 L195.946,33.1203 L195.946,30.5202 C195.278,31.4117 194.398,32.1174 193.309,32.6374 C192.244,33.1326 191.08,33.3803 189.817,33.3803 C188.208,33.3803 186.784,33.046 185.546,32.3774 C184.308,31.6841 183.33,30.6812 182.612,29.3688 C181.918,28.0316 181.572,26.4469 181.572,24.6145 L181.572,12.5429 L186.772,12.5429 L186.772,23.8716 C186.772,25.5059 187.18,26.7688 187.997,27.6602 C188.815,28.5269 189.929,28.9602 191.34,28.9602 C192.777,28.9602 193.903,28.5269 194.72,27.6602 C195.538,26.7688 195.946,25.5059 195.946,23.8716 L195.946,12.5429 L201.183,12.5429 Z" id="Shape" fill="#FFFFFF" fill-rule="nonzero"></path>
            <path d="M170.692,33.4546 C169.008,33.4546 167.497,33.1574 166.16,32.5631 C164.823,31.9441 163.758,31.1145 162.966,30.0745 C162.198,29.0345 161.777,27.8831 161.703,26.6202 L166.94,26.6202 C167.039,27.4126 167.423,28.0688 168.092,28.5888 C168.785,29.1088 169.639,29.3688 170.654,29.3688 C171.645,29.3688 172.413,29.1707 172.957,28.7745 C173.527,28.3783 173.812,27.8707 173.812,27.2517 C173.812,26.5831 173.465,26.0878 172.772,25.7659 C172.103,25.4193 171.026,25.0478 169.54,24.6516 C168.005,24.2802 166.742,23.8964 165.752,23.5002 C164.786,23.104 163.944,22.4973 163.226,21.6802 C162.532,20.863 162.186,19.7611 162.186,18.3744 C162.186,17.2354 162.508,16.1954 163.152,15.2544 C163.82,14.3134 164.761,13.5706 165.974,13.0258 C167.213,12.481 168.661,12.2086 170.32,12.2086 C172.772,12.2086 174.728,12.8277 176.189,14.0658 C177.65,15.2792 178.455,16.9258 178.603,19.0059 L173.626,19.0059 C173.552,18.1887 173.205,17.5449 172.586,17.0744 C171.992,16.5792 171.187,16.3315 170.172,16.3315 C169.231,16.3315 168.5,16.5049 167.98,16.8516 C167.485,17.1982 167.237,17.6811 167.237,18.3001 C167.237,18.9935 167.584,19.5259 168.277,19.8973 C168.971,20.244 170.048,20.603 171.509,20.9744 C172.994,21.3459 174.22,21.7297 175.186,22.1259 C176.152,22.5221 176.981,23.1411 177.675,23.983 C178.393,24.8002 178.764,25.8897 178.789,27.2517 C178.789,28.4402 178.455,29.505 177.786,30.446 C177.142,31.3869 176.201,32.1298 174.963,32.6746 C173.75,33.1946 172.326,33.4546 170.692,33.4546 Z" id="Shape" fill="#FFFFFF" fill-rule="nonzero"></path>
            <path d="M144.144,15.5144 C144.813,14.5734 145.729,13.7934 146.893,13.1744 C148.081,12.5306 149.431,12.2086 150.941,12.2086 C152.699,12.2086 154.284,12.642 155.696,13.5087 C157.132,14.3753 158.258,15.6134 159.076,17.223 C159.918,18.8078 160.338,20.6525 160.338,22.7573 C160.338,24.8621 159.918,26.7316 159.076,28.3659 C158.258,29.9755 157.132,31.226 155.696,32.1174 C154.284,33.0088 152.699,33.4546 150.941,33.4546 C149.431,33.4546 148.094,33.145 146.93,32.526 C145.791,31.9069 144.862,31.1269 144.144,30.186 L144.144,42.9261 L138.944,42.9261 L138.944,12.5429 L144.144,12.5429 L144.144,15.5144 Z M155.027,22.7573 C155.027,21.5192 154.767,20.4544 154.247,19.563 C153.752,18.6468 153.083,17.9535 152.241,17.483 C151.424,17.0125 150.533,16.7773 149.567,16.7773 C148.626,16.7773 147.735,17.0249 146.893,17.5201 C146.075,17.9906 145.407,18.6839 144.887,19.6001 C144.392,20.5163 144.144,21.5935 144.144,22.8316 C144.144,24.0697 144.392,25.1469 144.887,26.0631 C145.407,26.9793 146.075,27.685 146.893,28.1802 C147.735,28.6507 148.626,28.886 149.567,28.886 C150.533,28.886 151.424,28.6383 152.241,28.1431 C153.083,27.6478 153.752,26.9421 154.247,26.0259 C154.767,25.1097 155.027,24.0202 155.027,22.7573 Z" id="Shape" fill="#FFFFFF" fill-rule="nonzero"></path>
            <path d="M132.543,10.0915 C131.627,10.0915 130.86,9.80672 130.241,9.23719 C129.646,8.6429 129.349,7.91242 129.349,7.04574 C129.349,6.17907 129.646,5.46097 130.241,4.89144 C130.86,4.29715 131.627,4 132.543,4 C133.46,4 134.215,4.29715 134.809,4.89144 C135.428,5.46097 135.738,6.17907 135.738,7.04574 C135.738,7.91242 135.428,8.6429 134.809,9.23719 C134.215,9.80672 133.46,10.0915 132.543,10.0915 Z M135.106,12.5429 L135.106,33.1203 L129.906,33.1203 L129.906,12.5429 L135.106,12.5429 Z" id="Shape" fill="#FFFFFF" fill-rule="nonzero"></path>
            <path d="M116.657,33.4546 C114.676,33.4546 112.894,33.0212 111.309,32.1546 C109.724,31.2631 108.474,30.0126 107.557,28.4031 C106.666,26.7936 106.22,24.9364 106.22,22.8316 C106.22,20.7268 106.678,18.8697 107.594,17.2601 C108.535,15.6506 109.811,14.4125 111.42,13.5458 C113.03,12.6544 114.825,12.2086 116.806,12.2086 C118.787,12.2086 120.582,12.6544 122.192,13.5458 C123.801,14.4125 125.064,15.6506 125.98,17.2601 C126.921,18.8697 127.392,20.7268 127.392,22.8316 C127.392,24.9364 126.909,26.7936 125.943,28.4031 C125.002,30.0126 123.715,31.2631 122.08,32.1546 C120.471,33.0212 118.663,33.4546 116.657,33.4546 Z M116.657,28.9231 C117.598,28.9231 118.477,28.7002 119.295,28.2545 C120.137,27.784 120.805,27.0907 121.3,26.1745 C121.796,25.2583 122.043,24.144 122.043,22.8316 C122.043,20.8754 121.523,19.3773 120.483,18.3373 C119.468,17.2725 118.217,16.7401 116.732,16.7401 C115.246,16.7401 113.996,17.2725 112.98,18.3373 C111.99,19.3773 111.495,20.8754 111.495,22.8316 C111.495,24.7878 111.977,26.2983 112.943,27.3631 C113.934,28.4031 115.172,28.9231 116.657,28.9231 Z" id="Shape" fill="#FFFFFF" fill-rule="nonzero"></path>
            <path d="M94.2714,33.4546 C92.2904,33.4546 90.5076,33.0212 88.9228,32.1546 C87.338,31.2631 86.0875,30.0126 85.1713,28.4031 C84.2799,26.7936 83.8342,24.9364 83.8342,22.8316 C83.8342,20.7268 84.2923,18.8697 85.2085,17.2601 C86.1494,15.6506 87.4247,14.4125 89.0342,13.5458 C90.6438,12.6544 92.439,12.2086 94.42,12.2086 C96.401,12.2086 98.1962,12.6544 99.8058,13.5458 C101.415,14.4125 102.678,15.6506 103.594,17.2601 C104.535,18.8697 105.006,20.7268 105.006,22.8316 C105.006,24.9364 104.523,26.7936 103.557,28.4031 C102.616,30.0126 101.329,31.2631 99.6943,32.1546 C98.0848,33.0212 96.2772,33.4546 94.2714,33.4546 Z M94.2714,28.9231 C95.2124,28.9231 96.0914,28.7002 96.9086,28.2545 C97.7505,27.784 98.4191,27.0907 98.9143,26.1745 C99.4096,25.2583 99.6572,24.144 99.6572,22.8316 C99.6572,20.8754 99.1372,19.3773 98.0972,18.3373 C97.0819,17.2725 95.8314,16.7401 94.3457,16.7401 C92.86,16.7401 91.6095,17.2725 90.5942,18.3373 C89.6038,19.3773 89.1085,20.8754 89.1085,22.8316 C89.1085,24.7878 89.5914,26.2983 90.5571,27.3631 C91.5476,28.4031 92.7857,28.9231 94.2714,28.9231 Z" id="Shape" fill="#FFFFFF" fill-rule="nonzero"></path>
            <path d="M71.8854,33.4546 C69.9044,33.4546 68.1216,33.0212 66.5368,32.1546 C64.952,31.2631 63.7015,30.0126 62.7853,28.4031 C61.8939,26.7936 61.4482,24.9364 61.4482,22.8316 C61.4482,20.7268 61.9063,18.8697 62.8225,17.2601 C63.7634,15.6506 65.0387,14.4125 66.6482,13.5458 C68.2577,12.6544 70.053,12.2086 72.034,12.2086 C74.0149,12.2086 75.8102,12.6544 77.4197,13.5458 C79.0293,14.4125 80.2921,15.6506 81.2083,17.2601 C82.1493,18.8697 82.6198,20.7268 82.6198,22.8316 C82.6198,24.9364 82.1369,26.7936 81.1712,28.4031 C80.2302,30.0126 78.9426,31.2631 77.3083,32.1546 C75.6988,33.0212 73.8911,33.4546 71.8854,33.4546 Z M71.8854,28.9231 C72.8264,28.9231 73.7054,28.7002 74.5226,28.2545 C75.3645,27.784 76.0331,27.0907 76.5283,26.1745 C77.0235,25.2583 77.2712,24.144 77.2712,22.8316 C77.2712,20.8754 76.7512,19.3773 75.7111,18.3373 C74.6959,17.2725 73.4454,16.7401 71.9597,16.7401 C70.474,16.7401 69.2235,17.2725 68.2082,18.3373 C67.2177,19.3773 66.7225,20.8754 66.7225,22.8316 C66.7225,24.7878 67.2054,26.2983 68.1711,27.3631 C69.1616,28.4031 70.3997,28.9231 71.8854,28.9231 Z" id="Shape" fill="#FFFFFF" fill-rule="nonzero"></path>
            <polygon id="Shape" fill="#FFFFFF" fill-rule="nonzero" points="52.2 28.9974 60.743 28.9974 60.743 33.1202 47 33.1202 47 7.19428 52.2 7.19428"></polygon>
            <path d="M85.2062,35.8843 C86.5234,39.8015 90.2256,42.6231 94.5867,42.6231 L95.1294,42.6231 C100.594,42.6231 105.024,38.1932 105.024,32.7287 L105.024,32.1696 L99.6596,32.1696 L99.6596,32.7287 C99.6596,35.2307 97.6314,37.2589 95.1294,37.2589 L94.5867,37.2589 C93.3116,37.2589 92.1595,36.7321 91.3363,35.8843 L85.2062,35.8843 Z" id="Shape" fill="#FFFFFF" fill-rule="nonzero"></path>
        </g>
    </g>
</svg>