<svg viewBox="0 0 18 18" fill="none" xmlns="http://www.w3.org/2000/svg">
    <path fill-rule="evenodd" clip-rule="evenodd" d="M12.0942 9.00003C12.0942 8.85084 12.0349 8.70777 11.9294 8.60228C11.8239 8.49679 11.6809 8.43753 11.5317 8.43753H3.30192L4.77267 7.17753C4.82881 7.12946 4.87493 7.07081 4.90841 7.00492C4.94188 6.93904 4.96205 6.8672 4.96776 6.79351C4.97347 6.71983 4.96461 6.64575 4.94169 6.57549C4.91877 6.50523 4.88223 6.44017 4.83417 6.38403C4.7861 6.32789 4.72745 6.28176 4.66156 6.24829C4.59568 6.21482 4.52384 6.19465 4.45016 6.18894C4.37647 6.18323 4.30239 6.19209 4.23213 6.21501C4.16187 6.23793 4.09681 6.27446 4.04067 6.32253L1.41567 8.57253C1.35392 8.62534 1.30434 8.69089 1.27035 8.76469C1.23635 8.83849 1.21875 8.91878 1.21875 9.00003C1.21875 9.08128 1.23635 9.16157 1.27035 9.23536C1.30434 9.30916 1.35392 9.37472 1.41567 9.42753L4.04067 11.6775C4.15405 11.7746 4.30135 11.8227 4.45016 11.8111C4.59897 11.7996 4.7371 11.7294 4.83417 11.616C4.93124 11.5026 4.97929 11.3554 4.96776 11.2065C4.95622 11.0577 4.88605 10.9196 4.77267 10.8225L3.30267 9.56253H11.5317C11.6809 9.56253 11.8239 9.50326 11.9294 9.39777C12.0349 9.29229 12.0942 9.14921 12.0942 9.00003Z" fill="white"/>
    <path d="M7.03125 6C7.03125 6.5265 7.03125 6.78975 7.158 6.9795C7.21259 7.06108 7.28267 7.13116 7.36425 7.18575C7.554 7.3125 7.81725 7.3125 8.34375 7.3125H11.5312C11.9788 7.3125 12.408 7.49029 12.7245 7.80676C13.041 8.12323 13.2188 8.55245 13.2188 9C13.2188 9.44755 13.041 9.87677 12.7245 10.1932C12.408 10.5097 11.9788 10.6875 11.5312 10.6875H8.34375C7.81725 10.6875 7.554 10.6875 7.36425 10.8135C7.28259 10.8683 7.21251 10.9386 7.158 11.0205C7.03125 11.2102 7.03125 11.4735 7.03125 12C7.03125 14.121 7.03125 15.1823 7.6905 15.8407C8.349 16.5 9.4095 16.5 11.5305 16.5H12.2805C14.403 16.5 15.4628 16.5 16.122 15.8407C16.7812 15.1823 16.7812 14.121 16.7812 12V6C16.7812 3.879 16.7812 2.81775 16.122 2.15925C15.4628 1.50075 14.4023 1.5 12.2812 1.5H11.5312C9.4095 1.5 8.349 1.5 7.6905 2.15925C7.03125 2.81775 7.03125 3.879 7.03125 6Z" fill="white"/>
    </svg>
    