<svg viewBox="0 0 18 18" fill="none" xmlns="http://www.w3.org/2000/svg">
    <path d="M4.54883 8.80078C4.54651 8.41685 4.44395 8.03992 4.25098 7.70801C4.06558 7.38919 3.80244 7.12328 3.4873 6.93262L3.375 6.85742C3.36277 6.84927 3.34964 6.84135 3.33691 6.83398C3.15376 6.72775 3.02053 6.55318 2.96582 6.34863C2.91113 6.14409 2.9383 5.92565 3.04395 5.74219L3.04492 5.74316L3.20996 5.45801C3.31619 5.27484 3.49076 5.14164 3.69531 5.08691C3.90001 5.03218 4.1182 5.06017 4.30176 5.16602C4.30848 5.16989 4.31542 5.17408 4.32227 5.17773L4.41406 5.22559V5.22656C4.74837 5.41952 5.12768 5.52046 5.51367 5.52051C5.89985 5.52051 6.27982 5.41965 6.61426 5.22656L6.61621 5.22559L6.9375 5.03711C7.27095 4.84425 7.54842 4.5679 7.74121 4.23438C7.93425 3.90039 8.03573 3.5215 8.03613 3.13574V3C8.03613 2.78795 8.12064 2.58457 8.27051 2.43457C8.42054 2.28454 8.62474 2.2002 8.83691 2.2002H9.16602C9.37819 2.2002 9.58239 2.28454 9.73242 2.43457C9.88229 2.58457 9.9668 2.78795 9.9668 3V3.13574C9.9672 3.5215 10.0687 3.90039 10.2617 4.23438C10.4544 4.56765 10.7313 4.84426 11.0645 5.03711V5.03809L11.3867 5.22559L11.3887 5.22656C11.7231 5.41965 12.1031 5.52051 12.4893 5.52051C12.8753 5.52046 13.2546 5.41952 13.5889 5.22656L13.5879 5.22559L13.6807 5.17773C13.6875 5.17408 13.6944 5.16989 13.7012 5.16602C13.8847 5.06017 14.1029 5.03218 14.3076 5.08691C14.5122 5.14164 14.6867 5.27484 14.793 5.45801L14.958 5.74316V5.74219C15.0639 5.92574 15.0918 6.14394 15.0371 6.34863C14.9824 6.55318 14.8492 6.72775 14.666 6.83398L14.5537 6.90137C14.2181 7.09517 13.9392 7.37396 13.7461 7.70996C13.5771 8.00396 13.479 8.33279 13.458 8.66992L13.4541 8.8125V9.18457C13.4526 9.57223 13.5529 9.95393 13.7461 10.29C13.9392 10.626 14.2181 10.9048 14.5537 11.0986C14.5604 11.1025 14.5674 11.1067 14.5742 11.1104L14.6689 11.1602C14.8505 11.2665 14.9826 11.4402 15.0371 11.6436C15.0918 11.8482 15.0637 12.0665 14.958 12.25L14.9541 12.2559L14.793 12.542C14.6867 12.7252 14.5122 12.8584 14.3076 12.9131C14.1029 12.9678 13.8847 12.9398 13.7012 12.834C13.6944 12.8301 13.6875 12.8259 13.6807 12.8223L13.5684 12.7627C13.239 12.5772 12.8675 12.4795 12.4893 12.4795C12.1031 12.4795 11.7231 12.5803 11.3887 12.7734L11.3867 12.7744L11.0664 12.9609C10.7323 13.1538 10.4548 13.4316 10.2617 13.7656C10.0687 14.0996 9.9672 14.4785 9.9668 14.8643V15C9.9668 15.212 9.88229 15.4154 9.73242 15.5654C9.58239 15.7155 9.37819 15.7998 9.16602 15.7998H8.83691C8.62474 15.7998 8.42054 15.7155 8.27051 15.5654C8.12064 15.4154 8.03613 15.212 8.03613 15V14.8643C8.03573 14.4785 7.93425 14.0996 7.74121 13.7656C7.57217 13.4732 7.3384 13.224 7.05859 13.0371L6.93652 12.9609L6.61621 12.7744L6.61426 12.7734L6.48633 12.7061C6.18438 12.5572 5.85158 12.4795 5.51367 12.4795C5.13539 12.4795 4.76393 12.5772 4.43457 12.7627L4.32227 12.8223L4.30176 12.834C4.1182 12.9398 3.90001 12.9678 3.69531 12.9131C3.49076 12.8584 3.31619 12.7252 3.20996 12.542L3.04492 12.2568H3.04395C2.93864 12.0735 2.9112 11.8556 2.96582 11.6514C3.02053 11.4468 3.15376 11.2723 3.33691 11.166L3.45898 11.0928L3.45801 11.0918C3.78934 10.8982 4.06555 10.6228 4.25684 10.29C4.45 9.95393 4.55037 9.57223 4.54883 9.18457V8.80078Z" fill="white" stroke="white" stroke-width="1.4" stroke-linecap="round" stroke-linejoin="round"/>
    <path d="M9 11.25C10.2426 11.25 11.25 10.2426 11.25 9C11.25 7.75736 10.2426 6.75 9 6.75C7.75736 6.75 6.75 7.75736 6.75 9C6.75 10.2426 7.75736 11.25 9 11.25Z" stroke="#0A3033" stroke-width="1.5" stroke-linecap="round" stroke-linejoin="round"/>
    </svg>
    